<svg width="18" height="21" viewBox="0 0 18 21" fill="none" xmlns="http://www.w3.org/2000/svg">
<path d="M1.25028 10.9794C1.23889 11.3934 1.56531 11.7383 1.97937 11.7497C2.39343 11.7611 2.73832 11.4347 2.74972 11.0206L1.25028 10.9794ZM15.2503 11.001C15.2624 11.415 15.6078 11.7409 16.0218 11.7289C16.4359 11.7168 16.7617 11.3714 16.7497 10.9574L15.2503 11.001ZM2.74972 11.0206C2.79937 9.21633 3.24151 7.37994 4.21895 6.01587C5.17016 4.68843 6.66598 3.75 9.0003 3.75V2.25C6.18812 2.25 4.23592 3.41694 2.99967 5.14217C1.78966 6.83079 1.3049 8.9944 1.25028 10.9794L2.74972 11.0206ZM9.0003 3.75C11.3305 3.75 12.825 4.68511 13.7763 6.00844C14.7538 7.36817 15.1979 9.19941 15.2503 11.001L16.7497 10.9574C16.692 8.97512 16.2048 6.81676 14.9942 5.13286C13.7575 3.41256 11.8072 2.25 9.0003 2.25V3.75Z" fill="white"/>
<path d="M1 13C1 9.8 2.90476 9 3.85714 9C5.57143 9 6 10.6 6 11.4V14.6C6 16.52 4.57143 17 3.85714 17C2.90476 17 1 16.2 1 13Z" fill="#EC8BA8"/>
<path d="M3.85714 8.25C3.19663 8.25 2.28569 8.51912 1.53899 9.27179C0.77702 10.0399 0.25 11.2447 0.25 13H1.75C1.75 11.5553 2.17536 10.7601 2.60387 10.3282C3.04765 9.88088 3.56527 9.75 3.85714 9.75V8.25ZM0.25 13C0.25 14.7553 0.77702 15.9601 1.53899 16.7282C2.28569 17.4809 3.19663 17.75 3.85714 17.75V16.25C3.56527 16.25 3.04765 16.1191 2.60387 15.6718C2.17536 15.2399 1.75 14.4447 1.75 13H0.25ZM3.85714 17.75C4.35287 17.75 5.06403 17.5902 5.66722 17.1038C6.30249 16.5915 6.75 15.7706 6.75 14.6H5.25C5.25 15.3494 4.98322 15.7285 4.72563 15.9362C4.43597 16.1698 4.0757 16.25 3.85714 16.25V17.75ZM6.75 14.6V11.4H5.25V14.6H6.75ZM6.75 11.4C6.75 10.8959 6.6205 10.1449 6.20231 9.49443C5.75812 8.80346 4.99643 8.25 3.85714 8.25V9.75C4.43214 9.75 4.74188 9.99654 4.94054 10.3056C5.16522 10.6551 5.25 11.1041 5.25 11.4H6.75Z" fill="white"/>
<path d="M17 13C17 9.8 15.0952 9 14.1429 9C12.4286 9 12 10.6 12 11.4V14.6C12 16.52 13.4286 17 14.1429 17C15.0952 17 17 16.2 17 13Z" fill="#EC8BA8"/>
<path d="M14.1429 8.25C14.8034 8.25 15.7143 8.51912 16.461 9.27179C17.223 10.0399 17.75 11.2447 17.75 13H16.25C16.25 11.5553 15.8246 10.7601 15.3961 10.3282C14.9524 9.88088 14.4347 9.75 14.1429 9.75V8.25ZM17.75 13C17.75 14.7553 17.223 15.9601 16.461 16.7282C15.7143 17.4809 14.8034 17.75 14.1429 17.75V16.25C14.4347 16.25 14.9524 16.1191 15.3961 15.6718C15.8246 15.2399 16.25 14.4447 16.25 13H17.75ZM14.1429 17.75C13.6471 17.75 12.936 17.5902 12.3328 17.1038C11.6975 16.5915 11.25 15.7706 11.25 14.6H12.75C12.75 15.3494 13.0168 15.7285 13.2744 15.9362C13.564 16.1698 13.9243 16.25 14.1429 16.25V17.75ZM11.25 14.6V11.4H12.75V14.6H11.25ZM11.25 11.4C11.25 10.8959 11.3795 10.1449 11.7977 9.49443C12.2419 8.80346 13.0036 8.25 14.1429 8.25V9.75C13.5679 9.75 13.2581 9.99654 13.0595 10.3056C12.8348 10.6551 12.75 11.1041 12.75 11.4H11.25Z" fill="white"/>
<path d="M17.7465 14.9601C17.7245 14.5465 17.3713 14.229 16.9577 14.2511C16.5441 14.2731 16.2266 14.6263 16.2487 15.0399L17.7465 14.9601ZM15.7615 18.0841L15.3347 17.4673L15.7615 18.0841ZM11.0041 18.25C10.5899 18.2477 10.2523 18.5817 10.25 18.9959C10.2477 19.4101 10.5817 19.7477 10.9959 19.75L11.0041 18.25ZM16.9976 15C16.2487 15.0399 16.2486 15.0396 16.2486 15.0394C16.2486 15.0394 16.2486 15.0392 16.2486 15.039C16.2486 15.0388 16.2486 15.0385 16.2486 15.0384C16.2486 15.038 16.2485 15.0377 16.2485 15.0376C16.2485 15.0373 16.2485 15.0376 16.2486 15.0383C16.2486 15.0397 16.2488 15.0431 16.2489 15.0482C16.2493 15.0586 16.2497 15.0762 16.2499 15.1003C16.2503 15.1485 16.2497 15.222 16.2452 15.3145C16.2363 15.501 16.2121 15.7568 16.1527 16.0344C16.0286 16.6131 15.7795 17.1595 15.3347 17.4673L16.1882 18.7008C17.094 18.0741 17.463 17.0784 17.6193 16.3488C17.7001 15.9721 17.7317 15.6321 17.7435 15.3864C17.7494 15.2628 17.7504 15.1611 17.7499 15.0881C17.7496 15.0516 17.7489 15.0221 17.7482 15.0005C17.7478 14.9897 17.7475 14.9809 17.7472 14.9741C17.7471 14.9707 17.7469 14.9679 17.7468 14.9655C17.7468 14.9644 17.7467 14.9633 17.7467 14.9624C17.7466 14.962 17.7466 14.9616 17.7466 14.9612C17.7466 14.961 17.7466 14.9607 17.7466 14.9606C17.7465 14.9604 17.7465 14.9601 16.9976 15ZM15.3347 17.4673C15.1046 17.6266 14.7383 17.7737 14.2628 17.8946C13.7986 18.0127 13.2828 18.0931 12.7924 18.147C12.3041 18.2006 11.8542 18.2264 11.5258 18.2388C11.362 18.245 11.2296 18.2478 11.1389 18.249C11.0936 18.2496 11.0589 18.2499 11.0359 18.25C11.0245 18.25 11.016 18.25 11.0106 18.25C11.0079 18.25 11.006 18.25 11.0049 18.25C11.0044 18.25 11.0041 18.25 11.0039 18.25C11.0038 18.25 11.0038 18.25 11.0039 18.25C11.0039 18.25 11.0039 18.25 11.0039 18.25C11.004 18.25 11.0041 18.25 11 19C10.9959 19.75 10.996 19.75 10.9961 19.75C10.9962 19.75 10.9963 19.75 10.9965 19.75C10.9967 19.75 10.997 19.75 10.9973 19.75C10.998 19.75 10.9989 19.75 11 19.75C11.0022 19.75 11.0052 19.75 11.009 19.75C11.0167 19.75 11.0275 19.75 11.0413 19.7499C11.069 19.7498 11.1089 19.7496 11.1595 19.7489C11.2606 19.7475 11.4052 19.7444 11.5823 19.7378C11.9357 19.7244 12.4228 19.6966 12.9561 19.638C13.4872 19.5797 14.0774 19.4896 14.6326 19.3483C15.1765 19.2099 15.743 19.0089 16.1882 18.7008L15.3347 17.4673Z" fill="white"/>
</svg>
