<svg width="16" height="16" viewBox="0 0 16 16" fill="none" xmlns="http://www.w3.org/2000/svg">
<path d="M11.3279 9.12651C10.4453 8.40522 9.24816 8 7.99991 8C6.75167 8 5.55454 8.40522 4.6719 9.12651C2.50826 10.8946 3.663 13.0543 4.30193 15.1429H11.6979C12.3368 13.0543 13.4916 10.8946 11.3279 9.12651Z" fill="white"/>
<path d="M12.1353 14.0838C12.1353 15.1138 10.4522 15.73 8.06766 15.73C5.68308 15.73 4 15.1138 4 14.0838C4 13.0538 8.06766 12 8.06766 12C8.06766 12 12.1353 13.0538 12.1353 14.0838Z" fill="#D7E0FF"/>
<path d="M11.3279 9.12651C10.4453 8.40522 9.24816 8 7.99991 8C6.75167 8 5.55454 8.40522 4.6719 9.12651C2.50826 10.8946 3.663 13.0543 4.30193 15.1429H11.6979C12.3368 13.0543 13.4916 10.8946 11.3279 9.12651Z" stroke="#9899B5" stroke-width="1.5" stroke-linecap="round" stroke-linejoin="round"/>
<path d="M11.3279 6.87349C10.4453 7.59478 9.24816 8 7.99991 8C6.75167 8 5.55454 7.59478 4.6719 6.87349C2.50826 5.10536 3.663 2.94569 4.30193 0.857143H11.6979C12.3368 2.94569 13.4916 5.10536 11.3279 6.87349Z" fill="white" stroke="#9899B5" stroke-width="1.5" stroke-linecap="round" stroke-linejoin="round"/>
<path d="M1.95605 0.857147H14.044" stroke="#9899B5" stroke-width="1.5" stroke-linecap="round" stroke-linejoin="round"/>
<path d="M1.95605 15.1429H14.044" stroke="#9899B5" stroke-width="1.5" stroke-linecap="round" stroke-linejoin="round"/>
</svg>
