<svg width="22" height="23" viewBox="0 0 22 23" fill="none" xmlns="http://www.w3.org/2000/svg">
<path d="M11.0001 21.6429C16.4244 21.6429 20.8216 17.2457 20.8216 11.8214C20.8216 6.3972 16.4244 2 11.0001 2C5.57591 2 1.17871 6.3972 1.17871 11.8214C1.17871 17.2457 5.57591 21.6429 11.0001 21.6429Z" fill="#D7E0FF" stroke="#7B7FDD" stroke-width="1.5" stroke-linecap="round" stroke-linejoin="round"/>
<path d="M11.0002 11.883C12.6633 11.883 14.0116 10.5347 14.0116 8.87156C14.0116 7.20842 12.6633 5.86017 11.0002 5.86017C9.33702 5.86017 7.98877 7.20842 7.98877 8.87156C7.98877 10.5347 9.33702 11.883 11.0002 11.883Z" fill="white" stroke="#7B7FDD" stroke-width="1.5" stroke-linecap="round" stroke-linejoin="round"/>
<path d="M16.8212 19.7327C15.1922 20.9333 13.1791 21.6429 11.0002 21.6429C8.82135 21.6429 6.80819 20.9333 5.1792 19.7327C5.50362 18.5111 6.20532 17.4191 7.18868 16.6154C8.26437 15.7362 9.61093 15.2559 11.0002 15.2559C12.3895 15.2559 13.7361 15.7362 14.8118 16.6154C15.7951 17.4191 16.4968 18.5111 16.8212 19.7327Z" fill="white" stroke="#7B7FDD" stroke-width="1.5" stroke-linecap="round" stroke-linejoin="round"/>
</svg>
